<svg width="1813" height="1020" viewBox="0 0 1813 1020" fill="none" xmlns="http://www.w3.org/2000/svg">
<path d="M340.391 136.908V790.614C340.391 816.001 360.787 836.401 386.169 836.401H783.216V91.5742H386.169C360.787 91.5742 340.391 111.974 340.391 136.908Z" fill="#19362C"/>
<path d="M783.216 91.5742H1426.83C1452.21 91.5742 1472.61 111.974 1472.61 137.361V791.068C1472.61 816.454 1452.21 836.854 1426.83 836.854H783.216V91.5742Z" fill="#DBDBDE"/>
<path d="M602.369 255.682H425.602V280.615H602.369V255.682Z" fill="white"/>
<path d="M692.566 312.348H425.602V337.281H692.566V312.348Z" fill="white"/>
<path d="M631.377 370.374H425.602V395.307H631.377V370.374Z" fill="white"/>
<path d="M542.087 514.985H425.602V539.919H542.087V514.985Z" fill="white"/>
<path d="M692.566 574.826H425.602V599.759H692.566V574.826Z" fill="white"/>
<path d="M617.326 631.948H425.602V656.881H617.326V631.948Z" fill="white"/>
<path d="M1404.62 153.226H851.657V522.692H1404.62V153.226Z" fill="white"/>
<path d="M1404.62 505.467H851.203V688.613H1404.62V505.467Z" fill="white"/>
<path d="M1351.59 208.985H909.22V405.732H1351.59V208.985Z" fill="#9AB7DE"/>
<path d="M1126.33 300.557C1145.85 300.557 1161.68 284.726 1161.68 265.197C1161.68 245.668 1145.85 229.837 1126.33 229.837C1106.8 229.837 1090.97 245.668 1090.97 265.197C1090.97 284.726 1106.8 300.557 1126.33 300.557Z" fill="white"/>
<path d="M909.22 405.731H1351.14L1241.9 286.504L1153.97 360.397L1071.48 297.384L993.524 359.944L909.22 306.451V405.731Z" fill="#3D6083"/>
<g opacity="0.1">
<path opacity="0.1" d="M1103.21 405.731L1154.43 360.851L1147.63 355.411L1090.07 405.731H1103.21Z" fill="#030403"/>
</g>
<g opacity="0.1">
<path opacity="0.1" d="M942.307 405.733L994.884 359.946L987.632 355.866L930.069 405.733H942.307Z" fill="#030403"/>
</g>
<path d="M1126.78 475.092H913.752C912.846 475.092 911.939 474.185 911.939 473.279V446.532C911.939 445.625 912.846 444.719 913.752 444.719H1126.78C1127.69 444.719 1128.59 445.625 1128.59 446.532V473.279C1128.59 474.185 1128.14 475.092 1126.78 475.092Z" fill="#B7B7BE"/>
<path d="M1178.9 604.747H913.752C912.846 604.747 911.939 603.841 911.939 602.934V576.187C911.939 575.281 912.846 574.374 913.752 574.374H1178.9C1179.81 574.374 1180.72 575.281 1180.72 576.187V602.934C1181.17 603.841 1180.26 604.747 1178.9 604.747Z" fill="#B7B7BE"/>
<path d="M1299.01 547.628H913.752C912.846 547.628 911.939 546.721 911.939 545.814V501.388C911.939 500.481 912.846 499.574 913.752 499.574H1299.01C1299.92 499.574 1300.83 500.481 1300.83 501.388V545.814C1300.83 546.721 1299.92 547.628 1299.01 547.628Z" fill="#04C56B"/>
<path d="M1231.03 532.213H927.35C926.443 532.213 925.536 531.307 925.536 530.4V516.347C925.536 515.44 926.443 514.533 927.35 514.533H1231.03C1231.93 514.533 1232.84 515.44 1232.84 516.347V530.4C1232.84 531.307 1231.93 532.213 1231.03 532.213Z" fill="#295849"/>
<path d="M1284.96 518.16L1273.63 529.493L1271.37 531.76C1270.91 532.213 1270.01 532.213 1269.1 531.76L1266.83 529.493L1260.94 523.6C1260.49 523.146 1260.49 522.24 1260.94 521.333L1263.21 519.066C1263.66 518.613 1264.57 518.613 1265.47 519.066L1270.01 523.6L1280.43 513.173C1280.88 512.72 1281.79 512.72 1282.7 513.173L1284.96 515.44C1285.42 516.8 1285.42 517.706 1284.96 518.16Z" fill="white"/>
<path d="M1005.76 937.947C1062.59 937.947 1108.65 891.874 1108.65 835.04C1108.65 778.207 1062.59 732.134 1005.76 732.134C948.938 732.134 902.874 778.207 902.874 835.04C902.874 891.874 948.938 937.947 1005.76 937.947Z" fill="#19362C"/>
<path d="M1238.73 937.947C1295.56 937.947 1341.62 891.874 1341.62 835.04C1341.62 778.207 1295.56 732.134 1238.73 732.134C1181.91 732.134 1135.84 778.207 1135.84 835.04C1135.84 891.874 1181.91 937.947 1238.73 937.947Z" fill="#19362C"/>
<path d="M1038.85 795.148L1020.72 777.015L962.703 835.495L1020.72 893.521L1038.85 875.841L998.51 835.495L1038.85 795.148Z" fill="white"/>
<path d="M1207 875.841L1225.13 893.521L1283.15 835.495L1225.13 777.015L1207 795.148L1247.34 835.495L1207 875.841Z" fill="white"/>
</svg>
